<?xml version="1.0" encoding="UTF-8"?>
<svg id="_图层_1" data-name="图层 1" xmlns="http://www.w3.org/2000/svg" xmlns:xlink="http://www.w3.org/1999/xlink" viewBox="0 0 2514.24 704.36">
  <defs>
    <style>
      .cls-1 {
        fill: #fff;
        opacity: .4;
      }

      .cls-1, .cls-2, .cls-3, .cls-4 {
        isolation: isolate;
      }

      .cls-1, .cls-5, .cls-6, .cls-7, .cls-8, .cls-9, .cls-4 {
        stroke-width: 0px;
      }

      .cls-2 {
        fill: none;
        opacity: .7;
        stroke: #60a5fa;
      }

      .cls-2, .cls-3 {
        stroke-linecap: round;
        stroke-miterlimit: 5.4;
        stroke-width: 10.8px;
      }

      .cls-5 {
        fill: url(#_未命名的渐变);
      }

      .cls-6 {
        fill: #d2d6ec;
      }

      .cls-10 {
        filter: url(#dropShadow);
      }

      .cls-7 {
        fill: #38bdf8;
      }

      .cls-8 {
        fill: url(#_未命名的渐变_2);
      }

      .cls-3 {
        opacity: .3;
        stroke: #e2e8f0;
      }

      .cls-9 {
        fill: #6ee7b7;
      }

      .cls-4 {
        fill: #60a5fa;
        opacity: .8;
      }
    </style>
    <filter id="dropShadow" x="-10%" y="-10%" width="130%" height="130%">
      <feDropShadow dx="0" dy="12" flood-color="#1E3A8A" flood-opacity="0.25" stdDeviation="16"/>
    </filter>
    <linearGradient id="_未命名的渐变" data-name="未命名的渐变" x1="-107.4" y1="891.04" x2="-107.4" y2="890.04" gradientTransform="translate(56716.2 625509.02) scale(525.15 -702)" gradientUnits="userSpaceOnUse">
      <stop offset="0" stop-color="#2563eb"/>
      <stop offset="1" stop-color="#1d4ed8"/>
    </linearGradient>
    <linearGradient id="_未命名的渐变_2" data-name="未命名的渐变 2" x1="-109.15" y1="890.07" x2="-108.15" y2="891.07" gradientTransform="translate(26706.82 433174.51) scale(243 -486)" gradientUnits="userSpaceOnUse">
      <stop offset="0" stop-color="#10b981"/>
      <stop offset="1" stop-color="#6ee7b7"/>
    </linearGradient>
  </defs>
  <g class="cls-10">
    <path class="cls-3" d="m131.67,81h405m-405,81h405M50.67,567h324"/>
    <path class="cls-5" d="m50.67,94.5C50.67,40.5,91.17,0,145.17,0h297c11.3,1.18,21.59,7.06,28.35,16.2l93.15,93.15c7.63,7.48,12,17.67,12.15,28.35v469.8c0,54-40.5,94.5-94.5,94.5H145.17c-54,0-94.5-40.5-94.5-94.5V94.5Z"/>
    <path class="cls-4" d="m442.17,0v67.5c0,28.35,25.65,54,54,54h67.5L442.17,0Z"/>
    <path class="cls-2" d="m50.67,216l-40.5,81c-6.75,13.5-6.75,33.75,2.7,43.2,9.45,10.8,27,10.8,35.1-2.7l22.95-54"/>
    <path class="cls-8" d="m347.67,121.5l-162,243h121.5l-54,243,175.5-270h-121.5l40.5-216Z"/>
    <circle class="cls-9" cx="172.17" cy="148.5" r="13.5"/>
    <circle class="cls-7" cx="469.17" cy="229.5" r="18.9"/>
    <circle class="cls-9" cx="482.67" cy="486" r="10.8"/>
    <circle class="cls-7" cx="158.67" cy="513" r="16.2"/>
    <path class="cls-1" d="m123.57,243h97.2c2.98,0,5.4,2.42,5.4,5.4h0c0,2.98-2.42,5.4-5.4,5.4h-97.2c-2.98,0-5.4-2.42-5.4-5.4h0c0-2.98,2.42-5.4,5.4-5.4Z"/>
    <path class="cls-1" d="m393.57,418.5h110.7c2.98,0,5.4,2.42,5.4,5.4h0c0,2.98-2.42,5.4-5.4,5.4h-110.7c-2.98,0-5.4-2.42-5.4-5.4h0c0-2.98,2.42-5.4,5.4-5.4Z"/>
  </g>
  <g>
    <path class="cls-6" d="m821.3,330.15h-122.66v84.08h102.53c9.5,0,16.6,2.28,21.28,6.84,4.68,4.56,7.02,10.65,7.02,18.27s-2.38,13.68-7.13,18.16c-4.75,4.48-11.81,6.73-21.18,6.73h-102.53v108.29c0,13.75-2.9,23.96-8.7,30.61-5.8,6.65-13.25,9.98-22.33,9.98s-16.74-3.36-22.54-10.09c-5.8-6.73-8.7-16.89-8.7-30.49v-252.91c0-9.56,1.33-17.38,3.98-23.43,2.65-6.05,6.81-10.46,12.48-13.23,5.66-2.76,12.9-4.15,21.7-4.15h146.77c9.92,0,17.3,2.35,22.12,7.06,4.82,4.71,7.23,10.87,7.23,18.5s-2.41,14.01-7.23,18.72c-4.82,4.71-12.2,7.06-22.12,7.06Z"/>
    <path class="cls-6" d="m1090.95,488.67c0,18.24-2.66,35.05-7.97,50.45-5.31,15.4-13,28.62-23.06,39.69-10.06,11.06-22.09,19.54-36.06,25.45-13.98,5.9-29.71,8.86-47.18,8.86s-32.92-2.99-46.76-8.97-25.83-14.54-35.96-25.67c-10.14-11.13-17.82-24.29-23.06-39.46-5.24-15.17-7.86-31.95-7.86-50.34s2.65-35.5,7.97-50.9c5.31-15.39,12.93-28.55,22.85-39.46,9.92-10.91,21.94-19.32,36.06-25.22,14.12-5.9,29.7-8.86,46.76-8.86s33.06,2.99,47.18,8.97c14.12,5.98,26.21,14.5,36.27,25.56,10.06,11.06,17.72,24.22,22.96,39.46,5.24,15.25,7.86,32.06,7.86,50.45Zm-57.45,0c0-24.96-5.14-44.39-15.41-58.3-10.27-13.9-24.08-20.85-41.41-20.85-11.18,0-21.04,3.1-29.56,9.3-8.53,6.2-15.1,15.36-19.71,27.47-4.61,12.11-6.92,26.23-6.92,42.38s2.27,29.97,6.81,41.93c4.54,11.96,11.04,21.11,19.5,27.47,8.46,6.36,18.42,9.53,29.88,9.53,17.33,0,31.14-6.99,41.41-20.96,10.27-13.97,15.41-33.3,15.41-57.96Z"/>
    <path class="cls-6" d="m1192.85,524.77v51.12c0,12.41-2.73,21.71-8.18,27.92-5.45,6.2-12.37,9.3-20.76,9.3s-15.03-3.14-20.34-9.42c-5.31-6.28-7.97-15.54-7.97-27.8v-170.4c0-27.5,9.29-41.25,27.89-41.25,9.5,0,16.35,3.22,20.55,9.64,4.19,6.43,6.5,15.92,6.92,28.48,6.85-12.56,13.87-22.05,21.07-28.48,7.2-6.42,16.81-9.64,28.83-9.64s23.69,3.22,35.02,9.64c11.32,6.43,16.98,14.95,16.98,25.56,0,7.48-2.41,13.64-7.23,18.5-4.82,4.86-10.03,7.29-15.62,7.29-2.1,0-7.17-1.38-15.2-4.15-8.04-2.76-15.13-4.15-21.28-4.15-8.39,0-15.24,2.35-20.55,7.06-5.31,4.71-9.44,11.7-12.37,20.96-2.94,9.27-4.96,20.29-6.08,33.07-1.12,12.78-1.68,28.36-1.68,46.75Z"/>
    <path class="cls-6" d="m1514.49,493.15v81.39c0,12.86-2.73,22.5-8.18,28.92-5.45,6.43-12.65,9.64-21.6,9.64s-15.69-3.22-21.07-9.64c-5.38-6.42-8.07-16.07-8.07-28.92v-97.53c0-15.39-.49-27.35-1.47-35.87-.98-8.52-3.64-15.51-7.97-20.96-4.33-5.46-11.18-8.18-20.55-8.18-18.73,0-31.07,6.88-37.01,20.63-5.94,13.75-8.91,33.49-8.91,59.19v82.74c0,12.71-2.69,22.31-8.07,28.81-5.38,6.5-12.48,9.75-21.28,9.75s-15.76-3.25-21.28-9.75c-5.52-6.5-8.28-16.11-8.28-28.81v-175.11c0-11.51,2.48-20.25,7.44-26.23,4.96-5.98,11.5-8.97,19.6-8.97s14.36,2.8,19.61,8.41c5.24,5.61,7.86,13.34,7.86,23.21v5.83c9.92-12.7,20.55-22.05,31.87-28.03,11.32-5.98,23.9-8.97,37.74-8.97s26.77,3.07,37.11,9.19c10.34,6.13,18.87,15.4,25.58,27.8,9.64-12.56,19.99-21.86,31.03-27.91,11.04-6.05,23.27-9.08,36.69-9.08,15.65,0,29.15,3.29,40.47,9.87,11.32,6.58,19.78,16,25.37,28.25,4.89,11.06,7.34,28.48,7.34,52.24v119.51c0,12.86-2.73,22.5-8.18,28.92-5.45,6.43-12.65,9.64-21.6,9.64s-15.76-3.25-21.28-9.75c-5.52-6.5-8.28-16.11-8.28-28.81v-102.91c0-13.15-.52-23.69-1.57-31.61-1.05-7.92-3.88-14.57-8.49-19.96-4.61-5.38-11.6-8.07-20.97-8.07-7.55,0-14.71,2.39-21.49,7.17-6.78,4.79-12.06,11.21-15.83,19.28-4.19,10.31-6.29,28.55-6.29,54.71Z"/>
    <path class="cls-6" d="m1848.72,578.58c-13.84,11.51-27.23,20.14-40.15,25.9-12.93,5.75-27.44,8.63-43.51,8.63-14.68,0-27.57-3.1-38.68-9.3-11.11-6.2-19.68-14.61-25.69-25.22-6.01-10.61-9.02-22.12-9.02-34.53,0-16.74,4.96-31.02,14.89-42.83,9.92-11.81,23.55-19.73,40.89-23.77,3.63-.9,12.65-2.92,27.05-6.05,14.4-3.14,26.73-6.01,37.01-8.63,10.27-2.61,21.42-5.79,33.44-9.53-.7-16.14-3.74-27.99-9.12-35.54-5.38-7.55-16.53-11.32-33.44-11.32-14.54,0-25.48,2.17-32.81,6.5-7.34,4.34-13.63,10.84-18.87,19.51-5.24,8.67-8.95,14.39-11.11,17.15-2.17,2.77-6.81,4.15-13.94,4.15-6.43,0-11.99-2.2-16.67-6.61-4.69-4.41-7.02-10.05-7.02-16.93,0-10.76,3.56-21.22,10.69-31.39,7.13-10.16,18.24-18.53,33.34-25.11,15.1-6.58,33.9-9.87,56.4-9.87,25.16,0,44.94,3.18,59.34,9.53,14.4,6.36,24.56,16.41,30.51,30.16,5.94,13.75,8.91,31.99,8.91,54.71,0,14.35-.04,26.53-.1,36.55-.07,10.02-.18,21.15-.32,33.41,0,11.51,1.78,23.51,5.35,35.99,3.56,12.48,5.35,20.52,5.35,24.1,0,6.28-2.76,12-8.28,17.15-5.52,5.16-11.78,7.74-18.77,7.74-5.87,0-11.67-2.95-17.4-8.86-5.73-5.9-11.81-14.46-18.24-25.67Zm-3.77-88.56c-8.39,3.29-20.58,6.77-36.59,10.43-16.01,3.66-27.08,6.35-33.23,8.07-6.15,1.72-12.02,5.08-17.61,10.09-5.59,5.01-8.39,12-8.39,20.96s3.28,17.15,9.85,23.65c6.57,6.5,15.17,9.75,25.79,9.75,11.32,0,21.77-2.65,31.35-7.96,9.57-5.3,16.6-12.14,21.07-20.52,5.17-9.27,7.76-24.51,7.76-45.74v-8.75Z"/>
    <path class="cls-6" d="m1951.67,369.61h6.29v-36.77c0-9.87.24-17.6.73-23.21.49-5.6,1.85-10.43,4.09-14.46,2.23-4.18,5.45-7.58,9.65-10.2,4.19-2.61,8.88-3.92,14.05-3.92,7.27,0,13.84,2.91,19.71,8.74,3.91,3.89,6.4,8.63,7.44,14.24,1.05,5.6,1.57,13.56,1.57,23.88v41.7h20.97c8.1,0,14.29,2.06,18.56,6.17,4.26,4.11,6.4,9.38,6.4,15.81,0,8.22-3.04,13.98-9.12,17.26-6.08,3.29-14.78,4.93-26.1,4.93h-10.69v112.56c0,9.57.31,16.93.94,22.08s2.31,9.34,5.03,12.56c2.73,3.22,7.16,4.82,13.31,4.82,3.35,0,7.9-.63,13.63-1.91,5.73-1.27,10.2-1.91,13.42-1.91,4.61,0,8.77,1.98,12.48,5.94,3.7,3.96,5.56,8.86,5.56,14.69,0,9.87-5.03,17.42-15.1,22.65s-24.53,7.85-43.4,7.85c-17.89,0-31.45-3.22-40.68-9.64-9.23-6.42-15.27-15.32-18.14-26.68-2.87-11.36-4.3-26.53-4.3-45.52v-117.49h-7.55c-8.25,0-14.54-2.09-18.87-6.28-4.33-4.18-6.5-9.49-6.5-15.92s2.27-11.69,6.81-15.81c4.54-4.11,11.15-6.17,19.81-6.17Z"/>
    <path class="cls-6" d="m2301.2,570.28l-14.68-41.25h-124.97l-14.68,42.15c-5.73,16.44-10.62,27.54-14.68,33.29-4.06,5.75-10.69,8.63-19.92,8.63-7.83,0-14.75-3.07-20.76-9.19-6.01-6.13-9.02-13.08-9.02-20.85,0-4.48.7-9.12,2.1-13.9,1.4-4.78,3.7-11.43,6.92-19.96l78.63-213.45c2.23-6.13,4.93-13.49,8.07-22.08,3.15-8.59,6.5-15.73,10.06-21.41,3.56-5.68,8.25-10.28,14.05-13.79,5.8-3.51,12.96-5.27,21.49-5.27s15.9,1.76,21.7,5.27c5.8,3.51,10.48,8.04,14.05,13.56,3.56,5.53,6.57,11.47,9.02,17.82,2.44,6.36,5.56,14.84,9.33,25.45l80.31,212.11c6.29,16.14,9.44,27.88,9.44,35.2s-2.97,14.61-8.91,20.96c-5.94,6.35-13.11,9.53-21.49,9.53-4.89,0-9.09-.94-12.58-2.8-3.5-1.87-6.43-4.41-8.81-7.62-2.38-3.21-4.93-8.15-7.65-14.8-2.73-6.65-5.07-12.52-7.02-17.6Zm-123.29-91.25h91.84l-46.34-135.65-45.5,135.65Z"/>
    <path class="cls-6" d="m2415.9,572.52v-258.97c0-13.45,2.86-23.54,8.6-30.27,5.73-6.73,13.14-10.09,22.23-10.09s16.95,3.33,22.75,9.98c5.8,6.65,8.7,16.78,8.7,30.38v258.97c0,13.6-2.9,23.77-8.7,30.49-5.8,6.73-13.39,10.09-22.75,10.09s-16.32-3.4-22.12-10.2c-5.8-6.8-8.7-16.93-8.7-30.38Z"/>
  </g>
</svg>