<?xml version="1.0" encoding="UTF-8"?>
<svg id="_图层_1" data-name="图层 1" xmlns="http://www.w3.org/2000/svg" xmlns:xlink="http://www.w3.org/1999/xlink" viewBox="0 0 1549.07 702">
  <defs>
    <style>
      .cls-1 {
        fill: #fff;
        opacity: .4;
      }

      .cls-1, .cls-2, .cls-3, .cls-4 {
        isolation: isolate;
      }

      .cls-1, .cls-5, .cls-6, .cls-7, .cls-8, .cls-4 {
        stroke-width: 0px;
      }

      .cls-9 {
        font-family: AdobeSongStd-Light-GBpc-EUC-H, 'Adobe Song Std';
        font-size: 278.66px;
        font-weight: 300;
      }

      .cls-2 {
        fill: none;
        opacity: .7;
        stroke: #60a5fa;
      }

      .cls-2, .cls-3 {
        stroke-linecap: round;
        stroke-miterlimit: 5.4;
        stroke-width: 10.8px;
      }

      .cls-5 {
        fill: url(#_未命名的渐变);
      }

      .cls-10 {
        filter: url(#dropShadow);
      }

      .cls-6 {
        fill: #38bdf8;
      }

      .cls-7 {
        fill: url(#_未命名的渐变_2);
      }

      .cls-3 {
        opacity: .3;
        stroke: #e2e8f0;
      }

      .cls-8 {
        fill: #6ee7b7;
      }

      .cls-4 {
        fill: #60a5fa;
        opacity: .8;
      }
    </style>
    <filter id="dropShadow" x="-10%" y="-10%" width="130%" height="130%">
      <feDropShadow dx="0" dy="12" flood-color="#1E3A8A" flood-opacity="0.25" stdDeviation="16"/>
    </filter>
    <linearGradient id="_未命名的渐变" data-name="未命名的渐变" x1="-343.02" y1="864" x2="-343.02" y2="863" gradientTransform="translate(180452.55 606528.01) scale(525.15 -702)" gradientUnits="userSpaceOnUse">
      <stop offset="0" stop-color="#2563eb"/>
      <stop offset="1" stop-color="#1d4ed8"/>
    </linearGradient>
    <linearGradient id="_未命名的渐变_2" data-name="未命名的渐变 2" x1="-344.25" y1="863.01" x2="-343.25" y2="864.01" gradientTransform="translate(83835.88 420025.51) scale(243 -486)" gradientUnits="userSpaceOnUse">
      <stop offset="0" stop-color="#10b981"/>
      <stop offset="1" stop-color="#6ee7b7"/>
    </linearGradient>
  </defs>
  <g class="cls-10">
    <path class="cls-3" d="m131.67,81h405m-405,81h405M50.67,567h324"/>
    <path class="cls-5" d="m50.67,94.5C50.67,40.5,91.17,0,145.17,0h297c11.3,1.18,21.59,7.06,28.35,16.2l93.15,93.15c7.63,7.48,12,17.67,12.15,28.35v469.8c0,54-40.5,94.5-94.5,94.5H145.17c-54,0-94.5-40.5-94.5-94.5V94.5Z"/>
    <path class="cls-4" d="m442.17,0v67.5c0,28.35,25.65,54,54,54h67.5L442.17,0Z"/>
    <path class="cls-2" d="m50.67,216l-40.5,81c-6.75,13.5-6.75,33.75,2.7,43.2,9.45,10.8,27,10.8,35.1-2.7l22.95-54"/>
    <path class="cls-7" d="m347.67,121.5l-162,243h121.5l-54,243,175.5-270h-121.5l40.5-216Z"/>
    <circle class="cls-8" cx="172.17" cy="148.5" r="13.5"/>
    <circle class="cls-6" cx="469.17" cy="229.5" r="18.9"/>
    <circle class="cls-8" cx="482.67" cy="486" r="10.8"/>
    <circle class="cls-6" cx="158.67" cy="513" r="16.2"/>
    <path class="cls-1" d="m123.57,243h97.2c2.98,0,5.4,2.42,5.4,5.4h0c0,2.98-2.42,5.4-5.4,5.4h-97.2c-2.98,0-5.4-2.42-5.4-5.4h0c0-2.98,2.42-5.4,5.4-5.4Z"/>
    <path class="cls-1" d="m393.57,418.5h110.7c2.98,0,5.4,2.42,5.4,5.4h0c0,2.98-2.42,5.4-5.4,5.4h-110.7c-2.98,0-5.4-2.42-5.4-5.4h0c0-2.98,2.42-5.4,5.4-5.4Z"/>
  </g>
  <text class="cls-9" transform="translate(608.65 607.5) scale(.87 1)"><tspan x="0" y="0">FormatAI</tspan></text>
</svg>